<?xml version="1.0" encoding="UTF-8"?>
<svg version="1.1" xmlns="http://www.w3.org/2000/svg" width="512" height="512">
<path d="M0 0 C5.37748709 4.34320473 10.2401446 9.20343865 15.10586548 14.10299683 C16.16627865 15.16137942 17.22713594 16.21931721 18.28840637 17.27684021 C20.48887994 19.47294042 22.68396422 21.67424462 24.87515259 23.87960815 C27.65613157 26.67771843 30.45042915 29.46207812 33.24892139 32.24265957 C35.43452946 34.41732953 37.61282312 36.59921458 39.78909874 38.78322029 C40.8157542 39.81184798 41.84456158 40.83833337 42.87574196 41.86242485 C54.89549357 53.81755273 64.87721537 67.11129926 70.64883423 83.16940308 C70.88296021 83.81602905 71.11708618 84.46265503 71.35830688 85.12887573 C75.26278399 96.60160092 76.93987595 107.94877347 76.83633423 120.04440308 C76.82803589 121.30929565 76.81973755 122.57418823 76.81118774 123.87741089 C76.2119562 157.27230749 60.01854932 181.48799377 37.03286743 204.45089722 C35.81249794 205.67726643 34.59253392 206.90403925 33.37294006 208.13117981 C30.0881966 211.43344055 26.79713651 214.72933257 23.50426507 218.02348638 C21.44010509 220.0890763 19.37737927 222.15608748 17.31514549 224.22360039 C10.10044017 231.45675658 2.8806406 238.68478185 -4.34408569 245.90792847 C-11.046393 252.60903474 -17.73746523 259.32121499 -24.42336148 266.03869158 C-30.19231636 271.83390893 -35.96906962 277.62127558 -41.75180751 283.40273947 C-45.19299526 286.84342065 -48.63110129 290.28704002 -52.06134605 293.73863411 C-55.29056593 296.98740613 -58.52950283 300.22618305 -61.77571678 303.45797157 C-62.95533797 304.63552469 -64.13165474 305.81640044 -65.30411148 307.00108719 C-85.93284498 327.83074667 -111.10443318 341.80226516 -140.96542358 342.17501831 C-153.66952219 342.15572901 -165.48955121 341.83547591 -177.60116577 337.79440308 C-178.31127808 337.55834351 -179.02139038 337.32228394 -179.75302124 337.07907104 C-197.61095354 330.89793893 -220.3483624 317.6296827 -228.97616577 299.98190308 C-230.40424276 292.69871043 -230.37377451 286.3660441 -226.60116577 279.79440308 C-221.60590921 273.19859919 -215.6473255 266.40140623 -207.60116577 263.79440308 C-200.17351295 262.91332978 -193.66453839 263.19615767 -187.60116577 267.79440308 C-185.19175773 270.0271683 -182.82042876 272.29287465 -180.4559021 274.57272339 C-169.16198174 285.10218111 -155.410988 288.42344392 -140.34335327 288.10690308 C-134.27326949 287.81842385 -129.08899059 286.39907217 -123.60116577 283.79440308 C-122.7787439 283.4051062 -121.95632202 283.01580933 -121.10897827 282.61471558 C-116.14922872 279.93676773 -112.00650054 276.51507816 -107.90194702 272.68502808 C-107.34784149 272.1704303 -106.79373596 271.65583252 -106.22283936 271.12564087 C-99.0075866 264.37087842 -92.02979952 257.3726038 -85.05136108 250.37496948 C-82.71233096 248.03053631 -80.3679438 245.69155436 -78.02304077 243.35299683 C-76.50969891 241.83899473 -74.99666696 240.32468278 -73.48397827 238.81002808 C-72.7953067 238.12338074 -72.10663513 237.4367334 -71.39709473 236.72927856 C-68.25327239 233.57040112 -65.20485383 230.38056684 -62.30355835 226.99679565 C-57.62980525 221.58695563 -52.53775154 216.58681848 -47.48007202 211.54049683 C-46.41050413 210.4702534 -45.34108457 209.39986174 -44.27180481 208.32933044 C-42.04198354 206.09804395 -39.81038737 203.86855251 -37.57748413 201.64035034 C-34.73552145 198.8040842 -31.89807335 195.96335076 -29.06195164 193.12124538 C-26.85798351 190.91363975 -24.65160958 188.70845087 -22.44453239 186.50395393 C-21.39816128 185.45824329 -20.35251404 184.41180772 -19.30764961 183.3645916 C-14.08656686 178.13433475 -8.84216253 172.97822187 -3.2179718 168.17729187 C8.65976739 158.01800738 21.13521752 144.12817383 22.57583618 127.78659058 C23.11056159 109.31193429 19.24516317 95.7183046 6.45352173 81.86471558 C3.97061858 79.36293103 1.35503607 77.08085138 -1.33163452 74.80221558 C-8.35884959 68.58536782 -14.8648919 61.76401018 -20.97616577 54.65377808 C-31.85569149 42.20509 -45.2220794 31.75212509 -62.20272827 30.53659058 C-79.32290299 29.86754065 -92.24351555 35.68942957 -105.02304077 46.80612183 C-111.54896051 51.83899023 -118.64340615 51.64443649 -126.60116577 50.79440308 C-129.86009215 49.69022736 -132.04954128 48.07435147 -134.60116577 45.79440308 C-135.37331421 45.13955933 -136.14546265 44.48471558 -136.94100952 43.81002808 C-143.3766952 37.92716467 -147.58580956 31.56976942 -148.03866577 22.66940308 C-146.98424776 13.33027209 -142.97850997 7.49617491 -135.72616577 1.54440308 C-95.39630718 -30.57011395 -41.02653011 -32.25148281 0 0 Z " fill="#7FAAFF" transform="translate(435.6011657714844,25.205596923828125)"/>
<path d="M0 0 C15.03195772 13.25827539 15.03195772 13.25827539 15.8515625 22.66796875 C16.01828803 31.49052818 13.48648687 36.95678048 7.546875 43.41015625 C1.54176907 49.50175548 -3.23455348 53.59390593 -12.1640625 53.7109375 C-22.04678052 53.45815178 -26.62029187 49.18789051 -33.49682617 42.55761719 C-43.11211844 33.59316462 -56.22276995 28.51930052 -69.3515625 28.3359375 C-89.82600625 29.7249073 -103.4278179 40.94002048 -117.32128906 54.91748047 C-118.47348478 56.06560059 -119.6263154 57.21308384 -120.77972412 58.35998535 C-123.88147995 61.44818082 -126.97381078 64.54564962 -130.06400776 67.64540625 C-133.31531446 70.90436665 -136.57400113 74.15593505 -139.83148193 77.40872192 C-145.29702812 82.86882785 -150.75625887 88.33518816 -156.21191406 93.80517578 C-162.50077912 100.11037213 -168.8003889 106.40467805 -175.10567117 112.69345367 C-180.54080968 118.11493765 -185.97002957 123.54229665 -191.39442801 128.97452652 C-194.62471941 132.20947162 -197.85694784 135.4424114 -201.09455109 138.67004013 C-204.13843357 141.70519696 -207.17477042 144.74771318 -210.20566559 147.7958374 C-211.31279889 148.90690547 -212.42243336 150.01548829 -213.53486633 151.12125015 C-221.49952802 159.0425742 -229.09457767 167.08176273 -233.2265625 177.7109375 C-233.81050781 179.17660156 -233.81050781 179.17660156 -234.40625 180.671875 C-238.59914779 192.48822333 -237.68499398 207.09883344 -232.3515625 218.3359375 C-231.76761719 219.56957031 -231.76761719 219.56957031 -231.171875 220.828125 C-228.45357756 225.86260487 -224.96230988 230.03824513 -221.0703125 234.19921875 C-220.55025635 234.75836975 -220.0302002 235.31752075 -219.49438477 235.89361572 C-213.5420602 242.25628662 -207.43931134 248.46975468 -201.28808594 254.63964844 C-199.34626228 256.59126445 -197.41540652 258.55333753 -195.484375 260.515625 C-181.19386952 275.00043253 -181.19386952 275.00043253 -163.3515625 284.3359375 C-162.68253906 284.55894531 -162.01351562 284.78195312 -161.32421875 285.01171875 C-147.81843207 288.70883354 -134.03404207 286.43310792 -121.7265625 280.1484375 C-117.05553811 277.39063713 -113.01266272 273.87592965 -108.9296875 270.32421875 C-103.99841568 266.52116215 -98.36250204 264.89494415 -92.11328125 265.58203125 C-82.64087483 267.38099247 -76.59389105 273.28419111 -70.3515625 280.3359375 C-66.87214059 286.09873004 -65.49632796 291.58908724 -66.3515625 298.3359375 C-68.14786306 304.19343934 -70.70778768 308.29787244 -75.3515625 312.3359375 C-76.01671875 312.99078125 -76.681875 313.645625 -77.3671875 314.3203125 C-97.23888777 333.40240878 -123.61117878 341.04642172 -150.69116211 340.73828125 C-182.13707337 339.84338589 -207.21064507 324.99587256 -228.98828125 303.1328125 C-230.04398239 302.08169537 -231.10004677 301.03094294 -232.15644836 299.98052979 C-234.34866061 297.79715562 -236.53525069 295.60834271 -238.71801758 293.41552734 C-241.47919794 290.64285985 -244.25592968 287.8863822 -247.03738689 285.13407516 C-249.2161957 282.97384196 -251.38536924 280.80412062 -253.55207253 278.63175201 C-254.57059909 277.61307489 -255.59211573 276.59737609 -256.61701012 275.5851059 C-266.60231099 265.70564542 -275.41111897 254.78544898 -281.2265625 241.8984375 C-281.59458984 241.10348877 -281.96261719 240.30854004 -282.34179688 239.48950195 C-293.79798307 213.95047725 -293.780537 183.61343774 -283.92236328 157.6105957 C-276.91064533 140.05029266 -265.05709364 126.73612821 -251.85205078 113.56176758 C-250.60562439 112.31098479 -249.35961358 111.05978776 -248.11398315 109.80821228 C-244.75499176 106.43592259 -241.38971989 103.06996983 -238.02280283 99.70559525 C-235.20300751 96.88687545 -232.38620737 94.06517162 -229.56933963 91.24352664 C-222.92079347 84.583918 -216.26697412 77.92961078 -209.60986328 71.27856445 C-202.76081799 64.43556292 -195.92101231 57.58342444 -189.08563817 50.72676927 C-183.19695591 44.82043406 -177.30244285 38.91996223 -171.40330303 33.02407187 C-167.88863854 29.51121376 -164.37619662 25.99620642 -160.8694191 22.4754734 C-157.57153063 19.16495019 -154.26637768 15.861851 -150.95567703 12.56414223 C-149.74783887 11.35865674 -148.5425084 10.15065213 -147.34000397 8.93984604 C-140.78643187 2.34433115 -134.24328384 -3.65747813 -126.3515625 -8.6640625 C-125.34867188 -9.32535156 -124.34578125 -9.98664063 -123.3125 -10.66796875 C-84.28369708 -34.19137111 -34.46160048 -28.93194539 0 0 Z " fill="#7FAAFF" transform="translate(290.3515625,169.6640625)"/>
<path d="M0 0 C3.0625 2.4375 3.0625 2.4375 5 5 C5.33 5.33 5.66 5.66 6 6 C6.74708689 9.48875482 6.6840098 12.50237599 6 16 C4.31415558 18.38501263 4.31415558 18.38501263 2.0723877 20.733078 C0.84099815 22.03464623 0.84099815 22.03464623 -0.41526794 23.36250877 C-1.26822952 24.23288088 -2.1211911 25.10325298 -3 26 C-3.77606094 26.79636683 -4.55212189 27.59273365 -5.35169983 28.4132328 C-7.81069238 30.9054698 -10.29328614 33.37192104 -12.78320312 35.83325195 C-14.21532845 37.25573851 -15.64745077 38.6782281 -17.07946014 40.10083139 C-18.59890263 41.60945016 -20.11956117 43.11683413 -21.64048767 44.62395668 C-24.83192113 47.787206 -28.01764634 50.95616374 -31.20227051 54.12626648 C-32.29942361 55.21827757 -33.39658401 56.31028134 -34.49375153 57.40227795 C-35.04268979 57.94863065 -35.59162806 58.49498336 -36.15720081 59.0578922 C-43.55568384 66.42053527 -50.95897569 73.77829296 -58.37255859 81.12573242 C-63.39693967 86.10537802 -68.41396537 91.09231266 -73.42303991 96.08735627 C-76.06314607 98.71945818 -78.70672669 101.34783002 -81.35951233 103.96715736 C-96.63559767 118.78347423 -96.63559767 118.78347423 -109 136 C-109.45902206 136.78430893 -109.91804413 137.56861786 -110.39097595 138.37669373 C-111.43816322 140.22408449 -112.39234173 142.08662259 -113.3125 144 C-113.63879395 144.66660645 -113.96508789 145.33321289 -114.30126953 146.02001953 C-120.1164862 158.23517451 -123.20706303 171.52007155 -124 185 C-124.07734375 186.21171875 -124.1546875 187.4234375 -124.234375 188.671875 C-125.41106456 216.06957101 -113.73782246 241.69408662 -96 262 C-92.27007011 265.89873639 -88.43103734 269.67697567 -84.5625 273.4375 C-82.59958896 275.34697252 -80.64364037 277.26321382 -78.69140625 279.18359375 C-77.83748291 280.01431396 -76.98355957 280.84503418 -76.10375977 281.70092773 C-73.1305949 284.95012043 -72.11106883 287.00038057 -71.625 291.375 C-72.06939355 295.67080432 -73.29591294 297.67783589 -76 301 C-79.07254125 303.04836083 -79.87168285 303.29456493 -83.375 303.3125 C-84.12523438 303.32925781 -84.87546875 303.34601563 -85.6484375 303.36328125 C-90.44649199 302.62205356 -93.81797755 299.43532884 -97.17260742 296.11791992 C-97.96080368 295.34248337 -98.74899994 294.56704681 -99.56108093 293.76811218 C-100.40072891 292.93068985 -101.24037689 292.09326752 -102.10546875 291.23046875 C-102.98471512 290.35787918 -103.86396149 289.48528961 -104.76985168 288.58625793 C-106.63086332 286.73536615 -108.4891728 284.88175405 -110.3449707 283.02563477 C-113.14720741 280.22315742 -115.96969867 277.44147096 -118.79101562 274.65820312 C-130.77260435 262.75420846 -141.84387843 251.14345165 -148.875 235.5625 C-149.24302734 234.76755127 -149.61105469 233.97260254 -149.99023438 233.15356445 C-161.44642057 207.61453975 -161.4289745 177.27750024 -151.57080078 151.2746582 C-144.70022729 134.0678405 -133.1914353 120.881644 -120.21557617 107.95678711 C-119.04645236 106.7849471 -117.87775309 105.61268339 -116.70944214 104.44003296 C-113.56362622 101.28517259 -110.4116063 98.13658239 -107.2580812 94.98943019 C-103.95064567 91.68708767 -100.64812573 88.37983493 -97.34480286 85.07337952 C-91.80645492 79.53140508 -86.2639296 73.99363479 -80.71899414 68.45825195 C-74.30648354 62.05666102 -67.9012602 55.6478463 -61.49970073 49.23530573 C-55.99408491 43.72062428 -50.48459445 38.20983661 -44.97182447 32.70230681 C-41.68280039 29.41640158 -38.39514482 26.12915773 -35.11098289 22.83839226 C-32.03006918 19.75171496 -28.94433045 16.66994506 -25.85474777 13.59194565 C-24.720628 12.46047614 -23.58821741 11.32729056 -22.45762444 10.19229698 C-20.91786002 8.64709116 -19.37210677 7.10814056 -17.82463074 5.57066345 C-16.96023974 4.70702651 -16.09584875 3.84338957 -15.20526409 2.95358181 C-10.9238564 -0.83919758 -5.46105269 -0.8100126 0 0 Z " fill="#9BBBFF" transform="translate(158,176)"/>
<path d="M0 0 C6.42591045 3.77014431 11.66973289 9.37673764 16.8828125 14.6171875 C17.70071259 15.43317413 18.51861267 16.24916077 19.36129761 17.08987427 C21.07974874 18.80697159 22.79570567 20.52656837 24.50927734 22.24853516 C27.11726243 24.86723065 29.73574777 27.47508221 32.35546875 30.08203125 C34.03189159 31.75977583 35.70769385 33.43814077 37.3828125 35.1171875 C38.15795197 35.8882785 38.93309143 36.65936951 39.73171997 37.4538269 C51.95473098 49.78174783 59.87774064 62.81768049 60.25 80.5 C59.93389495 94.75800127 55.40266824 106.84852472 45.47167969 117.21064758 C44.94653149 117.76859082 44.42138329 118.32653405 43.8803215 118.90138465 C38.45860099 124.6342796 32.90877694 130.23957337 27.328125 135.81713867 C26.21936395 136.92890329 25.11080398 138.04086847 24.00242615 139.15301514 C21.03633806 142.12781159 18.06713485 145.09947848 15.09701157 148.0702455 C13.23766912 149.93030439 11.37904276 151.79107581 9.5206604 153.65209389 C3.02816232 160.15379154 -3.46686003 166.65295476 -9.96435547 173.1496582 C-16.01077209 179.19547085 -22.05155072 185.24687736 -28.08979988 191.30084628 C-33.29329248 196.51740027 -38.5006187 201.73010614 -43.71096611 206.93981344 C-46.81521698 210.04380953 -49.9178996 213.14933428 -53.01672363 216.25874901 C-55.92132065 219.17300687 -58.83065259 222.08245204 -61.74372673 224.98823547 C-62.81132066 226.05478207 -63.87720675 227.12304133 -64.94125557 228.19312477 C-66.39286625 229.65243506 -67.85049689 231.10545516 -69.30981445 232.55705261 C-70.12384232 233.37162524 -70.93787018 234.18619787 -71.77656555 235.02545452 C-75.65219384 238.46724896 -78.69162685 239.50295253 -83.96484375 239.39453125 C-87.61727597 238.68647817 -89.43783808 236.62465368 -92 234 C-93.13557238 231.72885524 -93.23084318 230.27706381 -93.3125 227.75 C-93.34988281 227.00234375 -93.38726562 226.2546875 -93.42578125 225.484375 C-92.39645164 219.47837839 -87.37283947 215.10510955 -83.16796875 211.0078125 C-82.61313309 210.45817841 -82.05829742 209.90854431 -81.48664856 209.34225464 C-79.72500891 207.59828689 -77.95680564 205.86118706 -76.1875 204.125 C-74.42975966 202.39512953 -72.67360787 200.66372045 -70.92048645 198.9291687 C-69.83472441 197.85539586 -68.7463073 196.78429747 -67.65458679 195.71658325 C-64.91213787 193.00945418 -62.31390954 190.23838279 -59.80566406 187.31225586 C-55.09317318 181.86878321 -49.97255212 176.82830098 -44.87890625 171.74609375 C-43.80933836 170.67585033 -42.73991879 169.60545866 -41.67063904 168.53492737 C-39.44081776 166.30364087 -37.2092216 164.07414943 -34.97631836 161.84594727 C-32.13435568 159.00968112 -29.29690758 156.16894769 -26.46078587 153.32684231 C-24.25681774 151.11923667 -22.05044381 148.91404779 -19.84336662 146.70955086 C-18.79699551 145.66384021 -17.75134826 144.61740465 -16.70648384 143.57018852 C-11.48540109 138.33993168 -6.24099676 133.18381879 -0.61680603 128.38288879 C11.26093316 118.2236043 23.73638329 104.33377076 25.17700195 87.9921875 C25.71172736 69.51753122 21.84632894 55.92390153 9.0546875 42.0703125 C6.57730005 39.5740856 3.96645119 37.29691167 1.2890625 35.01953125 C-1.68863009 32.39245434 -4.54081998 29.65545751 -7.375 26.875 C-8.16148926 26.12029419 -8.16148926 26.12029419 -8.96386719 25.3503418 C-13.23304443 21.12084868 -15.26899243 17.52122992 -15.375 11.5 C-15.29716755 8.15876421 -15.02393397 7.04017487 -13.25 4.0625 C-8.97676197 0.14536514 -5.8745217 -0.78326956 0 0 Z " fill="#9BBBFF" transform="translate(433,65)"/>
<path d="M0 0 C5.90323944 4.45720096 11.13340149 9.92273806 16.375 15.125 C17.44041016 16.15947266 17.44041016 16.15947266 18.52734375 17.21484375 C19.54634766 18.22611328 19.54634766 18.22611328 20.5859375 19.2578125 C21.1948584 19.8573877 21.8037793 20.45696289 22.43115234 21.07470703 C25.03413834 24.26909663 26.04276859 26.95216966 25.875 31.0625 C24.85140734 34.49884678 23.85642857 35.85767857 21 38 C17.85021497 39.27693988 16.2831503 39.0802136 13.0078125 38.15234375 C7.60010484 35.7326405 3.6932332 31.25113087 -0.39038086 27.07617188 C-1.81431881 25.62314404 -3.25615245 24.18984464 -4.70117188 22.7578125 C-12.56558405 14.82094295 -12.56558405 14.82094295 -14 10 C-13.85018723 6.32958709 -13.45017602 4.55521709 -11.125 1.6875 C-7.28940105 -1.35841681 -4.5691626 -1.37936984 0 0 Z " fill="#9CBCFF" transform="translate(419,406)"/>
<path d="M0 0 C0.87229248 0.87938232 1.74458496 1.75876465 2.64331055 2.66479492 C3.11697556 3.13841965 3.59064056 3.61204437 4.07865906 4.10002136 C5.07017512 5.09686479 6.05562444 6.09977643 7.03515625 7.10839844 C8.52955152 8.64477247 10.04429145 10.15858303 11.56323242 11.6706543 C19.7957108 19.99258367 19.7957108 19.99258367 21.2175293 24.83276367 C21.07261627 28.38313273 20.63017028 30.2672927 18.5300293 33.14526367 C15.61288528 35.27399039 13.82912677 35.76053172 10.2175293 35.83276367 C3.86609028 33.16925699 -0.30405994 28.83521973 -5.09741211 24.01879883 C-6.52907403 22.58616266 -7.98075938 21.17621629 -9.43481445 19.76635742 C-10.34875977 18.85499023 -11.26270508 17.94362305 -12.2043457 17.00463867 C-13.03546875 16.18060547 -13.8665918 15.35657227 -14.72290039 14.50756836 C-17.15345381 11.35096057 -18.00360073 8.72031116 -18.7824707 4.83276367 C-17.914908 1.36251286 -16.62920605 -0.97743991 -13.7824707 -3.16723633 C-8.93319187 -5.41868722 -3.93404629 -3.06418609 0 0 Z " fill="#9CBBFF" transform="translate(85.782470703125,71.167236328125)"/>
<path d="M0 0 C2.75329021 1.79562405 4.52627461 3.05254922 6 6 C6.61244485 13.04311577 5.60661622 21.67489341 1.171875 27.33203125 C-1.93990306 29.72183203 -4.07479948 29.57266647 -7.875 29.37890625 C-10 29 -10 29 -12.5 27.4375 C-15.73821641 22.17539834 -15.08350526 16.64512802 -13.875 10.8125 C-13.64554687 9.62269531 -13.41609375 8.43289063 -13.1796875 7.20703125 C-10.81068949 0.76680819 -6.57605616 -0.93943659 0 0 Z " fill="#9CBCFF" transform="translate(353,436)"/>
<path d="M0 0 C2.00010267 3.20016427 2.04292748 5.57120628 2.09375 9.28125 C1.34861715 12.39327543 0.0646012 13.53855384 -2.4375 15.5 C-8.31658816 17.72227874 -15.17682689 19.39438187 -21.4375 18.5 C-24.19079021 16.70437595 -25.96377461 15.44745078 -27.4375 12.5 C-27.80616751 8.59212444 -27.91353567 6.28055849 -25.84375 2.88671875 C-22.84356567 -0.08911344 -20.74682638 -0.58010824 -16.625 -1.375 C-15.44292969 -1.61992187 -14.26085937 -1.86484375 -13.04296875 -2.1171875 C-8.26813718 -2.6241577 -4.15089464 -2.5543967 0 0 Z " fill="#9CBCFF" transform="translate(463.4375,340.5)"/>
<path d="M0 0 C2.125 0.37890625 2.125 0.37890625 4.625 1.94140625 C7.86321641 7.20350791 7.20850526 12.73377823 6 18.56640625 C5.77054688 19.75621094 5.54109375 20.94601563 5.3046875 22.171875 C3.91014524 25.96299816 2.53189675 27.27645195 -0.875 29.37890625 C-5.160698 29.99114882 -7.101344 29.88346451 -10.75 27.50390625 C-13.30129256 24.95261369 -13.81285469 24.09357735 -14.125 20.50390625 C-14.02020993 14.28199607 -12.93229641 7.00327795 -9.046875 2.046875 C-5.93509694 -0.34292578 -3.80020052 -0.19376022 0 0 Z " fill="#9BBBFF" transform="translate(166.875,46.62109375)"/>
<path d="M0 0 C2.72544891 2.72544891 3.07169869 3.56000609 3.4375 7.4375 C3.0644092 11.83997141 2.22594572 13.04922429 -0.875 16.125 C-4.08203125 17.3046875 -4.08203125 17.3046875 -7.6875 18 C-9.46060547 18.36738281 -9.46060547 18.36738281 -11.26953125 18.7421875 C-16.04436282 19.2491577 -20.16160536 19.1793967 -24.3125 16.625 C-26.31260267 13.42483573 -26.35542748 11.05379372 -26.40625 7.34375 C-25.66111715 4.23172457 -24.3771012 3.08644616 -21.875 1.125 C-15.1337671 -1.42316702 -6.3716598 -4.15543031 0 0 Z " fill="#9CBBFF" transform="translate(72.875,154.875)"/>
</svg>
